<mxfile host="app.diagrams.net" modified="2023-07-07T05:10:08.982Z" agent="Mozilla/5.0 (Windows NT 10.0; Win64; x64) AppleWebKit/537.36 (KHTML, like Gecko) Chrome/114.0.0.0 Safari/537.36" etag="lBWZgMoy8_qpBvaBDQNy" version="21.6.1" type="device">
  <diagram name="Page-1" id="qrGFlhDthQRWNVfsWTtx">
    <mxGraphModel dx="1692" dy="452" grid="1" gridSize="10" guides="1" tooltips="1" connect="1" arrows="1" fold="1" page="1" pageScale="1" pageWidth="850" pageHeight="1100" math="1" shadow="0">
      <root>
        <mxCell id="0" />
        <mxCell id="1" parent="0" />
        <mxCell id="MKsPukbwXDs_1XyzE4-Y-95" value="" style="rounded=0;whiteSpace=wrap;html=1;" vertex="1" parent="1">
          <mxGeometry x="30" y="50" width="450" height="180" as="geometry" />
        </mxCell>
        <mxCell id="MKsPukbwXDs_1XyzE4-Y-94" value="" style="rounded=0;whiteSpace=wrap;html=1;" vertex="1" parent="1">
          <mxGeometry x="30" y="240" width="450" height="180" as="geometry" />
        </mxCell>
        <mxCell id="MKsPukbwXDs_1XyzE4-Y-2" value="" style="endArrow=none;html=1;rounded=0;" edge="1" parent="1">
          <mxGeometry width="50" height="50" relative="1" as="geometry">
            <mxPoint x="110" y="200" as="sourcePoint" />
            <mxPoint x="260" y="200" as="targetPoint" />
          </mxGeometry>
        </mxCell>
        <mxCell id="MKsPukbwXDs_1XyzE4-Y-3" value="" style="rounded=0;whiteSpace=wrap;html=1;" vertex="1" parent="1">
          <mxGeometry x="130" y="190" width="10" height="10" as="geometry" />
        </mxCell>
        <mxCell id="MKsPukbwXDs_1XyzE4-Y-4" value="" style="rounded=0;whiteSpace=wrap;html=1;" vertex="1" parent="1">
          <mxGeometry x="140" y="180" width="10" height="20" as="geometry" />
        </mxCell>
        <mxCell id="MKsPukbwXDs_1XyzE4-Y-5" value="" style="rounded=0;whiteSpace=wrap;html=1;" vertex="1" parent="1">
          <mxGeometry x="150" y="150" width="10" height="50" as="geometry" />
        </mxCell>
        <mxCell id="MKsPukbwXDs_1XyzE4-Y-6" value="" style="rounded=0;whiteSpace=wrap;html=1;" vertex="1" parent="1">
          <mxGeometry x="160" y="110" width="10" height="90" as="geometry" />
        </mxCell>
        <mxCell id="MKsPukbwXDs_1XyzE4-Y-7" value="" style="rounded=0;whiteSpace=wrap;html=1;" vertex="1" parent="1">
          <mxGeometry x="170" y="90" width="10" height="110" as="geometry" />
        </mxCell>
        <mxCell id="MKsPukbwXDs_1XyzE4-Y-8" value="" style="rounded=0;whiteSpace=wrap;html=1;" vertex="1" parent="1">
          <mxGeometry x="180" y="100" width="10" height="100" as="geometry" />
        </mxCell>
        <mxCell id="MKsPukbwXDs_1XyzE4-Y-9" value="" style="rounded=0;whiteSpace=wrap;html=1;fillColor=#999999;" vertex="1" parent="1">
          <mxGeometry x="190" y="150" width="10" height="50" as="geometry" />
        </mxCell>
        <mxCell id="MKsPukbwXDs_1XyzE4-Y-10" value="" style="rounded=0;whiteSpace=wrap;html=1;" vertex="1" parent="1">
          <mxGeometry x="200" y="180" width="10" height="20" as="geometry" />
        </mxCell>
        <mxCell id="MKsPukbwXDs_1XyzE4-Y-11" value="" style="rounded=0;whiteSpace=wrap;html=1;" vertex="1" parent="1">
          <mxGeometry x="210" y="190" width="10" height="10" as="geometry" />
        </mxCell>
        <mxCell id="MKsPukbwXDs_1XyzE4-Y-12" value="" style="endArrow=none;html=1;rounded=0;" edge="1" parent="1">
          <mxGeometry width="50" height="50" relative="1" as="geometry">
            <mxPoint x="110" y="390" as="sourcePoint" />
            <mxPoint x="260" y="390" as="targetPoint" />
          </mxGeometry>
        </mxCell>
        <mxCell id="MKsPukbwXDs_1XyzE4-Y-13" value="" style="rounded=0;whiteSpace=wrap;html=1;" vertex="1" parent="1">
          <mxGeometry x="180" y="380" width="10" height="10" as="geometry" />
        </mxCell>
        <mxCell id="MKsPukbwXDs_1XyzE4-Y-22" value="" style="edgeStyle=orthogonalEdgeStyle;rounded=0;orthogonalLoop=1;jettySize=auto;html=1;" edge="1" parent="1" source="MKsPukbwXDs_1XyzE4-Y-14" target="MKsPukbwXDs_1XyzE4-Y-17">
          <mxGeometry relative="1" as="geometry" />
        </mxCell>
        <mxCell id="MKsPukbwXDs_1XyzE4-Y-14" value="" style="rounded=0;whiteSpace=wrap;html=1;fillColor=#999999;" vertex="1" parent="1">
          <mxGeometry x="190" y="370" width="10" height="20" as="geometry" />
        </mxCell>
        <mxCell id="MKsPukbwXDs_1XyzE4-Y-15" value="" style="rounded=0;whiteSpace=wrap;html=1;" vertex="1" parent="1">
          <mxGeometry x="200" y="320" width="10" height="70" as="geometry" />
        </mxCell>
        <mxCell id="MKsPukbwXDs_1XyzE4-Y-16" value="" style="rounded=0;whiteSpace=wrap;html=1;" vertex="1" parent="1">
          <mxGeometry x="210" y="270" width="10" height="120" as="geometry" />
        </mxCell>
        <mxCell id="MKsPukbwXDs_1XyzE4-Y-17" value="" style="rounded=0;whiteSpace=wrap;html=1;" vertex="1" parent="1">
          <mxGeometry x="220" y="280" width="10" height="110" as="geometry" />
        </mxCell>
        <mxCell id="MKsPukbwXDs_1XyzE4-Y-19" value="" style="rounded=0;whiteSpace=wrap;html=1;" vertex="1" parent="1">
          <mxGeometry x="230" y="360" width="10" height="30" as="geometry" />
        </mxCell>
        <mxCell id="MKsPukbwXDs_1XyzE4-Y-20" value="" style="rounded=0;whiteSpace=wrap;html=1;" vertex="1" parent="1">
          <mxGeometry x="240" y="380" width="10" height="10" as="geometry" />
        </mxCell>
        <mxCell id="MKsPukbwXDs_1XyzE4-Y-24" value="\(x_0\)" style="text;html=1;align=center;verticalAlign=middle;resizable=0;points=[];autosize=1;strokeColor=none;fillColor=none;" vertex="1" parent="1">
          <mxGeometry x="165" y="388" width="60" height="30" as="geometry" />
        </mxCell>
        <mxCell id="MKsPukbwXDs_1XyzE4-Y-25" value="\(k = 1\)" style="text;html=1;align=center;verticalAlign=middle;resizable=0;points=[];autosize=1;strokeColor=none;fillColor=none;" vertex="1" parent="1">
          <mxGeometry x="25" y="128" width="60" height="30" as="geometry" />
        </mxCell>
        <mxCell id="MKsPukbwXDs_1XyzE4-Y-26" value="\(k = 2\)" style="text;html=1;align=center;verticalAlign=middle;resizable=0;points=[];autosize=1;strokeColor=none;fillColor=none;" vertex="1" parent="1">
          <mxGeometry x="30" y="315" width="60" height="30" as="geometry" />
        </mxCell>
        <mxCell id="MKsPukbwXDs_1XyzE4-Y-27" value="Class" style="text;html=1;align=center;verticalAlign=middle;resizable=0;points=[];autosize=1;strokeColor=none;fillColor=none;" vertex="1" parent="1">
          <mxGeometry x="30" y="8" width="50" height="30" as="geometry" />
        </mxCell>
        <mxCell id="MKsPukbwXDs_1XyzE4-Y-28" value="Quantitative predictor(s)" style="text;html=1;align=center;verticalAlign=middle;resizable=0;points=[];autosize=1;strokeColor=none;fillColor=none;" vertex="1" parent="1">
          <mxGeometry x="105" y="8" width="150" height="30" as="geometry" />
        </mxCell>
        <mxCell id="MKsPukbwXDs_1XyzE4-Y-29" value="Qualitative predictor(s)" style="text;html=1;align=center;verticalAlign=middle;resizable=0;points=[];autosize=1;strokeColor=none;fillColor=none;" vertex="1" parent="1">
          <mxGeometry x="300" y="8" width="140" height="30" as="geometry" />
        </mxCell>
        <mxCell id="MKsPukbwXDs_1XyzE4-Y-65" value="" style="endArrow=none;html=1;rounded=0;" edge="1" parent="1">
          <mxGeometry width="50" height="50" relative="1" as="geometry">
            <mxPoint x="300" y="200" as="sourcePoint" />
            <mxPoint x="450" y="200" as="targetPoint" />
          </mxGeometry>
        </mxCell>
        <mxCell id="MKsPukbwXDs_1XyzE4-Y-67" value="" style="rounded=0;whiteSpace=wrap;html=1;fillColor=#999999;" vertex="1" parent="1">
          <mxGeometry x="330" y="120" width="20" height="80" as="geometry" />
        </mxCell>
        <mxCell id="MKsPukbwXDs_1XyzE4-Y-70" value="" style="rounded=0;whiteSpace=wrap;html=1;" vertex="1" parent="1">
          <mxGeometry x="360" y="140" width="20" height="60" as="geometry" />
        </mxCell>
        <mxCell id="MKsPukbwXDs_1XyzE4-Y-73" value="" style="rounded=0;whiteSpace=wrap;html=1;" vertex="1" parent="1">
          <mxGeometry x="390" y="90" width="20" height="110" as="geometry" />
        </mxCell>
        <mxCell id="MKsPukbwXDs_1XyzE4-Y-76" value="" style="endArrow=none;html=1;rounded=0;" edge="1" parent="1">
          <mxGeometry width="50" height="50" relative="1" as="geometry">
            <mxPoint x="300" y="390" as="sourcePoint" />
            <mxPoint x="450" y="390" as="targetPoint" />
          </mxGeometry>
        </mxCell>
        <mxCell id="MKsPukbwXDs_1XyzE4-Y-77" value="" style="rounded=0;whiteSpace=wrap;html=1;fillColor=#999999;" vertex="1" parent="1">
          <mxGeometry x="330" y="350" width="20" height="40" as="geometry" />
        </mxCell>
        <mxCell id="MKsPukbwXDs_1XyzE4-Y-78" value="" style="rounded=0;whiteSpace=wrap;html=1;" vertex="1" parent="1">
          <mxGeometry x="360" y="290" width="20" height="100" as="geometry" />
        </mxCell>
        <mxCell id="MKsPukbwXDs_1XyzE4-Y-79" value="" style="rounded=0;whiteSpace=wrap;html=1;" vertex="1" parent="1">
          <mxGeometry x="390" y="330" width="20" height="60" as="geometry" />
        </mxCell>
        <mxCell id="MKsPukbwXDs_1XyzE4-Y-81" value="\(x_1\)" style="text;html=1;align=center;verticalAlign=middle;resizable=0;points=[];autosize=1;strokeColor=none;fillColor=none;" vertex="1" parent="1">
          <mxGeometry x="311" y="388" width="60" height="30" as="geometry" />
        </mxCell>
        <mxCell id="MKsPukbwXDs_1XyzE4-Y-82" value="\(P(X_0 = x_0 | Y=1)\)" style="text;html=1;align=center;verticalAlign=middle;resizable=0;points=[];autosize=1;strokeColor=none;fillColor=none;fontSize=10;" vertex="1" parent="1">
          <mxGeometry x="117" y="52" width="120" height="30" as="geometry" />
        </mxCell>
        <mxCell id="MKsPukbwXDs_1XyzE4-Y-83" value="\(P(X_1 = x_1 | Y=1)\)" style="text;html=1;align=center;verticalAlign=middle;resizable=0;points=[];autosize=1;strokeColor=none;fillColor=none;fontSize=10;" vertex="1" parent="1">
          <mxGeometry x="312" y="52" width="120" height="30" as="geometry" />
        </mxCell>
        <mxCell id="MKsPukbwXDs_1XyzE4-Y-84" value="\(P(X_0 = x_0 | Y=2)\)" style="text;html=1;align=center;verticalAlign=middle;resizable=0;points=[];autosize=1;strokeColor=none;fillColor=none;fontSize=10;" vertex="1" parent="1">
          <mxGeometry x="117" y="242" width="120" height="30" as="geometry" />
        </mxCell>
        <mxCell id="MKsPukbwXDs_1XyzE4-Y-85" value="\(P(X_1 = x_1 | Y=2)\)" style="text;html=1;align=center;verticalAlign=middle;resizable=0;points=[];autosize=1;strokeColor=none;fillColor=none;fontSize=10;" vertex="1" parent="1">
          <mxGeometry x="322" y="242" width="120" height="30" as="geometry" />
        </mxCell>
        <mxCell id="MKsPukbwXDs_1XyzE4-Y-86" value="" style="endArrow=none;html=1;rounded=0;" edge="1" parent="1">
          <mxGeometry width="50" height="50" relative="1" as="geometry">
            <mxPoint x="272" y="72" as="sourcePoint" />
            <mxPoint x="282" y="62" as="targetPoint" />
          </mxGeometry>
        </mxCell>
        <mxCell id="MKsPukbwXDs_1XyzE4-Y-87" value="" style="endArrow=none;html=1;rounded=0;" edge="1" parent="1">
          <mxGeometry width="50" height="50" relative="1" as="geometry">
            <mxPoint x="282" y="72" as="sourcePoint" />
            <mxPoint x="272" y="62" as="targetPoint" />
          </mxGeometry>
        </mxCell>
        <mxCell id="MKsPukbwXDs_1XyzE4-Y-88" value="" style="endArrow=none;html=1;rounded=0;" edge="1" parent="1">
          <mxGeometry width="50" height="50" relative="1" as="geometry">
            <mxPoint x="272" y="261" as="sourcePoint" />
            <mxPoint x="282" y="251" as="targetPoint" />
          </mxGeometry>
        </mxCell>
        <mxCell id="MKsPukbwXDs_1XyzE4-Y-89" value="" style="endArrow=none;html=1;rounded=0;" edge="1" parent="1">
          <mxGeometry width="50" height="50" relative="1" as="geometry">
            <mxPoint x="282" y="261" as="sourcePoint" />
            <mxPoint x="272" y="251" as="targetPoint" />
          </mxGeometry>
        </mxCell>
        <mxCell id="MKsPukbwXDs_1XyzE4-Y-92" value="\(x_0\)" style="text;html=1;align=center;verticalAlign=middle;resizable=0;points=[];autosize=1;strokeColor=none;fillColor=none;" vertex="1" parent="1">
          <mxGeometry x="165" y="198" width="60" height="30" as="geometry" />
        </mxCell>
        <mxCell id="MKsPukbwXDs_1XyzE4-Y-93" value="\(x_1\)" style="text;html=1;align=center;verticalAlign=middle;resizable=0;points=[];autosize=1;strokeColor=none;fillColor=none;" vertex="1" parent="1">
          <mxGeometry x="311" y="198" width="60" height="30" as="geometry" />
        </mxCell>
        <mxCell id="MKsPukbwXDs_1XyzE4-Y-98" value="\(P(Y= 1)\)" style="text;html=1;align=center;verticalAlign=middle;resizable=0;points=[];autosize=1;strokeColor=none;fillColor=none;fontSize=10;" vertex="1" parent="1">
          <mxGeometry x="-65" y="52" width="70" height="30" as="geometry" />
        </mxCell>
        <mxCell id="MKsPukbwXDs_1XyzE4-Y-99" value="\(P(Y= 2)\)" style="text;html=1;align=center;verticalAlign=middle;resizable=0;points=[];autosize=1;strokeColor=none;fillColor=none;fontSize=10;" vertex="1" parent="1">
          <mxGeometry x="-65" y="242" width="70" height="30" as="geometry" />
        </mxCell>
        <mxCell id="MKsPukbwXDs_1XyzE4-Y-100" value="" style="endArrow=none;html=1;rounded=0;" edge="1" parent="1">
          <mxGeometry width="50" height="50" relative="1" as="geometry">
            <mxPoint x="12" y="72" as="sourcePoint" />
            <mxPoint x="22" y="62" as="targetPoint" />
          </mxGeometry>
        </mxCell>
        <mxCell id="MKsPukbwXDs_1XyzE4-Y-101" value="" style="endArrow=none;html=1;rounded=0;" edge="1" parent="1">
          <mxGeometry width="50" height="50" relative="1" as="geometry">
            <mxPoint x="22" y="72" as="sourcePoint" />
            <mxPoint x="12" y="62" as="targetPoint" />
          </mxGeometry>
        </mxCell>
        <mxCell id="MKsPukbwXDs_1XyzE4-Y-102" value="" style="endArrow=none;html=1;rounded=0;" edge="1" parent="1">
          <mxGeometry width="50" height="50" relative="1" as="geometry">
            <mxPoint x="12" y="261" as="sourcePoint" />
            <mxPoint x="22" y="251" as="targetPoint" />
          </mxGeometry>
        </mxCell>
        <mxCell id="MKsPukbwXDs_1XyzE4-Y-103" value="" style="endArrow=none;html=1;rounded=0;" edge="1" parent="1">
          <mxGeometry width="50" height="50" relative="1" as="geometry">
            <mxPoint x="22" y="261" as="sourcePoint" />
            <mxPoint x="12" y="251" as="targetPoint" />
          </mxGeometry>
        </mxCell>
        <mxCell id="MKsPukbwXDs_1XyzE4-Y-104" value="" style="shape=curlyBracket;whiteSpace=wrap;html=1;rounded=1;flipH=1;labelPosition=right;verticalLabelPosition=middle;align=left;verticalAlign=middle;" vertex="1" parent="1">
          <mxGeometry x="490" y="38" width="20" height="392" as="geometry" />
        </mxCell>
        <mxCell id="MKsPukbwXDs_1XyzE4-Y-105" value="\(argmax_k\)" style="text;html=1;align=center;verticalAlign=middle;resizable=0;points=[];autosize=1;strokeColor=none;fillColor=none;" vertex="1" parent="1">
          <mxGeometry x="500" y="219" width="90" height="30" as="geometry" />
        </mxCell>
      </root>
    </mxGraphModel>
  </diagram>
</mxfile>
